<svg xmlns="http://www.w3.org/2000/svg" fill="none" viewBox="0 0 2410 1940"><mask id="a" width="2420" height="1940" x="-10" y="0" maskUnits="userSpaceOnUse" style="mask-type:luminance"><path d="M2400 10H0v1930h2400V10Z" fill="#fff"/></mask><g mask="url(#a)"><path d="M960 1940c-350 0-630-160-800-440C10 1250 0 980 0 680c0-180 50-340 160-450C250 120 380 50 530 30c170-20 390-20 620-20 360 0 470 0 610 20 190 20 350 90 470 210 110 110 170 270 170 450v40c0 310-200 570-490 640l-80 150a910 910 0 01-800 420h-70Z" fill="#fff"/><path d="M1750 180c-140-10-240-20-600-20-240 0-440 0-600 20-220 30-400 200-400 500s20 530 140 740c140 240 370 370 670 370h70c370 0 570-200 670-350 50-70 80-140 100-210 260-20 450-240 450-500v-40c0-280-180-480-500-510Z" fill="#fff"/><path d="M150 680c0-300 180-470 400-500 160-20 360-20 600-20 360 0 460 10 600 20 320 30 500 230 500 510v40c0 260-190 480-450 500-20 70-50 140-100 210a760 760 0 01-670 350h-70c-300 0-530-130-670-370-120-210-140-440-140-740" fill="#202020"/><path d="M320 680c0 290 20 480 120 660 110 200 300 280 530 280h70c290 0 440-150 520-270 40-70 70-140 90-220l10-60h80c190 0 340-150 340-340v-30c0-210-130-320-360-350a5560 5560 0 00-1130 0c-190 30-270 140-270 330" fill="#fff"/><path d="M1660 840c0 20 20 40 60 40 110 0 180-60 180-170s-70-180-180-180c-40 0-60 20-60 50v260Z" fill="#202020"/><path d="M550 820c0 140 70 250 170 340 60 70 160 130 230 170a130 130 0 00 130 0c70-40 170-100 230-170 100-90 170-200 170-340s-110-270-260-270c-100 0-160 50-210 110-40-60-110-110-200-110-160 0-260 130-260 270" fill="#FF5A16"/></g></svg>
